<svg viewBox="0 0 800 800" xmlns="http://www.w3.org/2000/svg"><path d="M386.76078364538273,144.5629669667002 L386.9080560976781,95.21040829864194 M-83.42029848590329,414.1351361190017 L-83.87462546595361,364.43443159329865 M386.76078364538273,144.5629669667002 L-83.42029848590329,414.1351361190017 M386.9080560976781,95.21040829864194 L-83.87462546595361,364.43443159329865 M621.834225516728,278.4088396922948 L622.2822321980716,228.88222518612753 M621.834225516728,278.4088396922948 L386.76078364538273,144.5629669667002 M622.2822321980716,228.88222518612753 L386.9080560976781,95.21040829864194 M151.65290145646742,551.7817641778196 L151.49930746490304,501.90698632600424 M-83.42029848590329,414.1351361190017 L151.65290145646742,551.7817641778196 M-83.87462546595361,364.43443159329865 L151.49930746490304,501.90698632600424 M151.65290145646742,551.7817641778196 L621.834225516728,278.4088396922948 M151.49930746490304,501.90698632600424 L622.2822321980716,228.88222518612753 M387.42322538736187,179.86554194231752 L324.18900570632275,143.79577416899087 M450.2184395209986,143.79577416899087 L387.42322538736187,179.86554194231752 M324.18900570632275,143.79577416899087 L386.98504203829634,107.86111404183498 M386.98504203829634,107.86111404183498 L450.2184395209986,143.79577416899087 M313.2435616455848,222.47457324485032 L250.00894040370366,186.24487749723045 M376.3172003993854,186.24487749723045 L313.2435616455848,222.47457324485032 M250.00894040370366,186.24487749723045 L313.0828813218299,150.15118811545136 M313.0828813218299,150.15118811545136 L376.3172003993854,186.24487749723045 M238.7343203685781,265.27291491638243 L175.49991694009736,228.88222518612747 M302.0882395965234,228.88222518612753 L238.7343203685781,265.27291491638243 M175.49991694009736,228.88222518612747 L238.85361134026897,192.62844852999325 M238.85361134026897,192.62844852999325 L302.0882395965234,228.88222518612753 M152.63839423842268,314.7266846755772 L89.40501775952043,278.1495216820454 M216.31695177763345,278.1495216820454 L152.63839423842268,314.7266846755772 M89.40501775952043,278.1495216820454 L153.08273570720405,241.71032446860897 M153.08273570720405,241.71032446860897 L216.31695177763345,278.1495216820454 M77.41308145214646,357.936340065914 L14.18128264816778,321.19585888128205 M141.37596576735712,321.19585888128205 L77.41308145214646,357.936340065914 M14.18128264816778,321.19585888128205 L78.14278510283907,284.5942676633254 M78.14278510283907,284.5942676633254 L141.37596576735712,321.19585888128205 M1.851190085171197,401.33932724770654 L-61.37838518669196,364.43443159329865 M66.10030972912386,364.43443159329865 L1.851190085171197,401.33932724770654 M-61.37838518669196,364.43443159329865 L2.86880307166615,327.6693583650385 M2.86880307166615,327.6693583650385 L66.10030972912386,364.43443159329865 M462.12148412616875,222.47457324485032 L398.60689333979985,186.24487749723045 M524.9151533354815,186.24487749723053 L462.12148412616875,222.47457324485032 M398.60689333979985,186.24487749723045 L461.40191571978835,150.15118811545136 M461.40191571978835,150.15118811545136 L524.9151533354815,186.24487749723053 M387.9429724337018,265.27291491638243 L324.4273553594221,228.88222518612753 M451.01567801584815,228.88222518612753 L387.9429724337018,265.27291491638243 M324.4273553594221,228.88222518612753 L387.50089412684736,192.62844852999325 M387.50089412684736,192.62844852999325 L451.01567801584815,228.88222518612753 M313.4341545553618,308.26183141446035 L249.91813054357607,271.70907219808635 M376.787760583683,271.70907219808635 L313.4341545553618,308.26183141446035 M249.91813054357607,271.70907219808635 L313.2720427830228,235.29414084168303 M313.2720427830228,235.29414084168303 L376.787760583683,271.70907219808635 M537.1516244988255,265.27291491638243 L473.35479377874674,228.88222518612753 M599.9431164351728,228.88222518612753 L537.1516244988255,265.27291491638243 M473.35479377874674,228.88222518612753 L536.1481769134258,192.62844852999325 M536.1481769134258,192.62844852999325 L599.9431164351728,228.88222518612753 M462.97500889603964,308.26183141446035 L399.1765188260548,271.70907219808635 M526.0461488661618,271.70907219808635 L462.97500889603964,308.26183141446035 M399.1765188260548,271.70907219808635 L462.2490300894783,235.29414084168303 M462.2490300894783,235.29414084168303 L526.0461488661618,271.70907219808635 M388.4673585254179,351.4425984826513 L324.6678283947317,314.7266846755772 M451.82001885809063,314.7266846755772 L388.4673585254179,351.4425984826513 M324.6678283947317,314.7266846755772 L388.02133309625685,278.1495216820454 M388.02133309625685,278.1495216820454 L451.82001885809063,314.7266846755772 M227.33780182517205,357.936340065914 L163.82208631780236,321.19585888128205 M291.0167694369917,321.19585888128205 L227.33780182517205,357.936340065914 M163.82208631780236,321.19585888128205 L227.50074535882186,284.5942676633254 M227.50074535882186,284.5942676633254 L291.0167694369917,321.19585888128205 M152.11131251719678,401.33932724770654 L88.5965500083854,364.43443159329865 M216.0752449242013,364.43443159329865 L152.11131251719678,401.33932724770654 M88.5965500083854,364.43443159329865 L152.55963152523304,327.6693583650385 M152.55963152523304,327.6693583650385 L216.0752449242013,364.43443159329865 M76.5474846921453,444.93694665901376 L13.034321134083712,407.86653042241045 M140.79829901938774,407.86653042241045 L76.5474846921453,444.93694665901376 M13.034321134083712,407.86653042241045 L77.28373496288123,370.9368774370965 M77.28373496288123,370.9368774370965 L140.79829901938774,407.86653042241045 M302.37143494922236,401.33932724770654 L238.57148520346294,364.43443159329865 M366.0501801192789,364.43443159329865 L302.37143494922236,401.33932724770654 M302.2504599787998,327.6693583650385 L366.0501801192789,364.43443159329865 M238.57148520346294,364.43443159329865 L302.2504599787998,327.6693583650385 M227.14451322827858,444.93694665901376 L163.34488335208846,407.86653042241045 M291.1088612373926,407.86653042241045 L227.14451322827858,444.93694665901376 M163.34488335208846,407.86653042241045 L227.30891862854003,370.9368774370965 M227.30891862854003,370.9368774370965 L291.1088612373926,407.86653042241045 M151.5794929827464,488.7305104272259 L87.78082898596085,451.49345755175386 M215.83136956698155,451.49345755175386 L151.5794929827464,488.7305104272259 M87.78082898596085,451.49345755175386 L152.0318431777642,414.3981172124097 M152.0318431777642,414.3981172124097 L215.83136956698155,451.49345755175386 M324.138627286785,180.33279756188935 L387.3133709361807,216.43731497578455 M387.3133709361807,216.43731497578455 L387.42322538736187,179.86554194231752 M324.138627286785,180.33279756188935 L324.18900570632275,143.79577416899087 M387.3133709361807,216.43731497578455 L450.0499323935792,180.33279756188935 M450.0499323935792,180.33279756188935 L450.2184395209986,143.79577416899087 M386.8760086327161,144.36339143433744 L324.138627286785,180.33279756188935 M386.8760086327161,144.36339143433744 L386.98504203829634,107.86111404183498 M450.0499323935792,180.33279756188935 L386.8760086327161,144.36339143433744 M250.02813406646482,222.82278314570368 L313.20327814638074,259.0872319224072 M313.20327814638074,259.0872319224072 L313.2435616455848,222.47457324485032 M250.02813406646482,222.82278314570368 L250.00894040370366,186.24487749723045 M313.20327814638074,259.0872319224072 L376.21774232871405,222.82278314570368 M376.21774232871405,222.82278314570368 L376.3172003993854,186.24487749723045 M313.0428995623782,186.69434355309463 L250.02813406646482,222.82278314570368 M313.0428995623782,186.69434355309463 L313.0828813218299,150.15118811545136 M376.21774232871405,222.82278314570368 L313.0428995623782,186.69434355309463 M175.589300620325,265.5010169903978 L238.76422750144087,301.92646215514924 M238.76422750144087,301.92646215514924 L238.7343203685781,265.27291491638243 M175.589300620325,265.5010169903978 L175.49991694009736,228.88222518612747 M238.76422750144087,301.92646215514924 L302.0584450364476,265.5010169903978 M302.0584450364476,265.5010169903978 L302.0882395965234,228.88222518612753 M238.88329396196298,229.21248688126542 L175.589300620325,265.5010169903978 M238.88329396196298,229.21248688126542 L238.85361134026897,192.62844852999325 M302.0584450364476,265.5010169903978 L238.88329396196298,229.21248688126542 M89.57589191420033,314.81533588277154 L152.74979475017648,351.42725583864046 M152.74979475017648,351.42725583864046 L152.63839423842268,314.7266846755772 M89.57589191420033,314.81533588277154 L89.40501775952043,278.1495216820454 M152.74979475017648,351.42725583864046 L216.36803786511507,314.81533588277154 M216.36803786511507,314.81533588277154 L216.31695177763345,278.1495216820454 M153.19329781276406,278.34138270756205 L89.57589191420033,314.81533588277154 M153.19329781276406,278.34138270756205 L153.08273570720405,241.71032446860897 M216.36803786511507,314.81533588277154 L153.19329781276406,278.34138270756205 M14.423696420180079,357.9025636743871 L77.5960260536499,394.67780205268735 M77.5960260536499,394.67780205268735 L77.41308145214646,357.936340065914 M14.423696420180079,357.9025636743871 L14.18128264816778,321.19585888128205 M77.5960260536499,394.67780205268735 L141.4980573751589,357.9025636743871 M141.4980573751589,357.9025636743871 L141.37596576735712,321.19585888128205 M78.3243497990403,321.2662153938223 L14.423696420180079,357.9025636743871 M78.3243497990403,321.2662153938223 L78.14278510283907,284.5942676633254 M141.4980573751589,357.9025636743871 L78.3243497990403,321.2662153938223 M-61.06379412930397,401.1820271596801 L2.1063182893619796,438.1216791991321 M2.1063182893619796,438.1216791991321 L1.851190085171197,401.33932724770654 M-61.06379412930397,401.1820271596801 L-61.37838518669196,364.43443159329865 M2.1063182893619796,438.1216791991321 L66.29404094525546,401.1820271596802 M66.29404094525546,401.1820271596802 L66.10030972912386,364.43443159329865 M3.122002629118583,364.38219679229525 L-61.06379412930397,401.1820271596801 M3.122002629118583,364.38219679229525 L2.86880307166615,327.6693583650385 M66.29404094525546,401.1820271596802 L3.122002629118583,364.38219679229525 M398.48649672793454,222.82278314570368 L461.9410841079938,259.0872319224072 M461.9410841079938,259.0872319224072 L462.12148412616875,222.47457324485032 M398.48649672793454,222.82278314570368 L398.60689333979985,186.24487749723045 M461.9410841079938,259.0872319224072 L524.6761049901838,222.82278314570368 M524.6761049901838,222.82278314570368 L524.9151533354815,186.24487749723053 M461.222866970939,186.6943435530947 L398.48649672793454,222.82278314570368 M461.222866970939,186.6943435530947 L461.40191571978835,150.15118811545136 M524.6761049901838,222.82278314570368 L461.222866970939,186.6943435530947 M324.3765293451751,265.5010169903978 L387.83214011779876,301.92646215514924 M387.83214011779876,301.92646215514924 L387.9429724337018,265.27291491638243 M324.3765293451751,265.5010169903978 L324.4273553594221,228.88222518612753 M387.83214011779876,301.92646215514924 L450.8456737612976,265.5010169903978 M450.8456737612976,265.5010169903978 L451.01567801584815,228.88222518612753 M387.3908938229225,229.21248688126542 L324.3765293451751,265.5010169903978 M387.3908938229225,229.21248688126542 L387.50089412684736,192.62844852999325 M450.8456737612976,265.5010169903978 L387.3908938229225,229.21248688126542 M249.93749511495923,308.368752900229 L313.3935116745527,344.9562689556841 M313.3935116745527,344.9562689556841 L313.4341545553618,308.26183141446035 M249.93749511495923,308.368752900229 L249.91813054357607,271.70907219808635 M313.3935116745527,344.9562689556841 L376.68741689560665,308.368752900229 M376.68741689560665,308.368752900229 L376.787760583683,271.70907219808635 M313.2317056811748,271.9190658344017 L249.93749511495923,308.368752900229 M313.2317056811748,271.9190658344017 L313.2720427830228,235.29414084168303 M376.68741689560665,308.368752900229 L313.2317056811748,271.9190658344017 M473.1637580700251,265.5010169903978 L536.9000527341567,301.92646215514924 M536.9000527341567,301.92646215514924 L537.1516244988255,265.27291491638243 M473.1637580700251,265.5010169903978 L473.35479377874674,228.88222518612753 M536.9000527341567,301.92646215514924 L599.6329024861476,265.5010169903979 M599.6329024861476,265.5010169903979 L599.9431164351728,228.88222518612753 M535.8984936838821,229.21248688126542 L473.1637580700251,265.5010169903978 M535.8984936838821,229.21248688126542 L536.1481769134258,192.62844852999325 M599.6329024861476,265.5010169903979 L535.8984936838821,229.21248688126542 M399.05505015101505,308.368752900229 L462.79299947328593,344.9562689556841 M462.79299947328593,344.9562689556841 L462.97500889603964,308.26183141446035 M399.05505015101505,308.368752900229 L399.1765188260548,271.70907219808635 M462.79299947328593,344.9562689556841 L525.8049719316625,308.368752900229 M525.8049719316625,308.368752900229 L526.0461488661618,271.70907219808635 M462.0683900246802,271.9190658344017 L399.05505015101505,308.368752900229 M462.0683900246802,271.9190658344017 L462.2490300894783,235.29414084168303 M525.8049719316625,308.368752900229 L462.0683900246802,271.9190658344017 M324.61654879408314,351.42725583864046 L388.3555352298107,388.1779268705278 M388.3555352298107,388.1779268705278 L388.4673585254179,351.4425984826513 M324.61654879408314,351.42725583864046 L324.6678283947317,314.7266846755772 M388.3555352298107,388.1779268705278 L451.64849743523155,351.4272558386406 M451.64849743523155,351.4272558386406 L451.82001885809063,314.7266846755772 M387.9103529751761,314.81533588277154 L324.61654879408314,351.42725583864046 M387.9103529751761,314.81533588277154 L388.02133309625685,278.1495216820454 M451.64849743523155,351.4272558386406 L387.9103529751761,314.81533588277154 M163.92294460250815,357.9025636743871 L227.37865353230387,394.67780205268735 M227.37865353230387,394.67780205268735 L227.33780182517205,357.936340065914 M163.92294460250815,357.9025636743871 L163.82208631780236,321.19585888128205 M227.37865353230387,394.67780205268735 L290.997305557487,357.9025636743871 M290.997305557487,357.9025636743871 L291.0167694369917,321.19585888128205 M227.54128893176005,321.2662153938223 L163.92294460250815,357.9025636743871 M227.54128893176005,321.2662153938223 L227.50074535882186,284.5942676633254 M290.997305557487,357.9025636743871 L227.54128893176005,321.2662153938223 M88.76895301723653,401.1820271596802 L152.223711656106,438.1216791991321 M152.223711656106,438.1216791991321 L152.11131251719678,401.33932724770654 M88.76895301723653,401.1820271596802 L88.5965500083854,364.43443159329865 M152.223711656106,438.1216791991321 L216.12678809179596,401.1820271596802 M216.12678809179596,401.1820271596802 L216.0752449242013,364.43443159329865 M152.67118098061417,364.38219679229525 L88.76895301723653,401.1820271596802 M152.67118098061417,364.38219679229525 L152.55963152523304,327.6693583650385 M216.12678809179596,401.1820271596802 L152.67118098061417,364.38219679229525 M13.278908705632034,444.6550157178491 L76.73207294672807,481.76018647223384 M76.73207294672807,481.76018647223384 L76.5474846921453,444.93694665901376 M13.278908705632034,444.6550157178491 L13.034321134083712,407.86653042241045 M76.73207294672807,481.76018647223384 L140.92148546053255,444.6550157178491 M140.92148546053255,444.6550157178491 L140.79829901938774,407.86653042241045 M77.46692470946323,407.6906065596316 L13.278908705632034,444.6550157178491 M77.46692470946323,407.6906065596316 L77.28373496288123,370.9368774370965 M140.92148546053255,444.6550157178491 L77.46692470946323,407.6906065596316 M238.60170016377708,401.1820271596802 L302.34110502285,438.1216791991321 M302.34110502285,438.1216791991321 L302.37143494922236,401.33932724770654 M238.60170016377708,401.1820271596802 L238.57148520346294,364.43443159329865 M302.34110502285,438.1216791991321 L365.95953523833646,401.1820271596802 M365.95953523833646,401.1820271596802 L366.0501801192789,364.43443159329865 M365.95953523833646,401.1820271596802 L302.22035933210975,364.38219679229525 M302.22035933210975,364.38219679229525 L302.2504599787998,327.6693583650385 M302.22035933210975,364.38219679229525 L238.60170016377708,401.1820271596802 M163.44664606433855,444.6550157178491 L227.18573196473886,481.76018647223384 M227.18573196473886,481.76018647223384 L227.14451322827858,444.93694665901376 M163.44664606433855,444.6550157178491 L163.34488335208846,407.86653042241045 M227.18573196473886,481.76018647223384 L291.08922281923907,444.6550157178491 M291.08922281923907,444.6550157178491 L291.1088612373926,407.86653042241045 M227.34982507680587,407.6906065596317 L163.44664606433855,444.6550157178491 M227.34982507680587,407.6906065596317 L227.30891862854003,370.9368774370965 M291.08922281923907,444.6550157178491 L227.34982507680587,407.6906065596317 M87.95478145972083,488.32283028490565 L151.69290423723055,525.59463473326 M151.69290423723055,525.59463473326 L151.5794929827464,488.7305104272259 M87.95478145972083,488.32283028490565 L87.78082898596085,451.49345755175386 M151.69290423723055,525.59463473326 L215.88337597666242,488.32283028490565 M215.88337597666242,488.32283028490565 L215.83136956698155,451.49345755175386 M152.14439326822145,451.19273580034724 L87.95478145972083,488.32283028490565 M152.14439326822145,451.19273580034724 L152.0318431777642,414.3981172124097 M215.88337597666242,488.32283028490565 L152.14439326822145,451.19273580034724" stroke="black"  stroke-width="4"  fill="red"/>
<path d="M174.0898984946669,515.1012522462481 L174.21440430904232,564.992605704449 M644.8704139842864,241.7103244686091 L644.3933283454744,291.2535182828799 M174.0898984946669,515.1012522462481 L644.8704139842864,241.7103244686091 M174.21440430904232,564.992605704449 L644.3933283454744,291.2535182828799 M413.14570863591996,654.7242450500804 L412.9599900458006,704.7895917013581 M413.14570863591996,654.7242450500804 L174.0898984946669,515.1012522462481 M412.9599900458006,704.7895917013581 L174.21440430904232,564.992605704449 M883.8746254659536,377.44368197546066 L883.0875141839301,427.1609664562833 M644.8704139842864,241.7103244686091 L883.8746254659536,377.44368197546066 M644.3933283454744,291.2535182828799 L883.0875141839301,427.1609664562833 M883.8746254659536,377.44368197546066 L413.14570863591996,654.7242450500804 M196.76078330354926,515.1012522462481 L645.1198118007063,254.55551269329635 M645.1198118007063,254.55551269329635 L861.3633055931632,377.44368197546066 M861.3633055931632,377.44368197546066 L413.04875163238455,641.3409884481698 M413.04875163238455,641.3409884481698 L196.76078330354926,515.1012522462481 M883.0875141839301,427.1609664562833 L412.9599900458006,704.7895917013581 M196.76078330354926,515.1012522462481 L196.83117988567096,551.9899050956658 M645.1198118007063,254.55551269329635 L644.766596190505,291.1988375822271 M196.83117988567096,551.9899050956658 L644.766596190505,291.1988375822271 M861.3633055931632,377.44368197546066 L860.802689683055,414.20354462651767 M644.766596190505,291.1988375822271 L860.802689683055,414.20354462651767 M413.04875163238455,641.3409884481698 L412.9116211908495,678.3461202222664 M860.802689683055,414.20354462651767 L412.9116211908495,678.3461202222664 M412.9116211908495,678.3461202222664 L196.83117988567096,551.9899050956658" stroke="black"  stroke-width="4"  fill="red"/></svg>