<svg viewBox="0 0 800 800" xmlns="http://www.w3.org/2000/svg"><path d="M374.395346826364,148.3107659322617 L374.5361436507022,101.12825878223691 M-75.11168721975218,406.02974022139324 L-75.54603726285444,358.5143953247369 M374.395346826364,148.3107659322617 L-75.11168721975218,406.02974022139324 M374.5361436507022,101.12825878223691 L-75.54603726285444,358.5143953247369 M599.1325165134582,276.2713827130886 L599.5608241638868,228.92247302897596 M599.1325165134582,276.2713827130886 L374.395346826364,148.3107659322617 M599.5608241638868,228.92247302897596 L374.5361436507022,101.12825878223691 M149.62525117608033,537.6239916206694 L149.47841077305424,489.94222747087633 M-75.11168721975218,406.02974022139324 L149.62525117608033,537.6239916206694 M-75.54603726285444,358.5143953247369 L149.47841077305424,489.94222747087633 M149.62525117608033,537.6239916206694 L599.1325165134582,276.2713827130886 M149.47841077305424,489.94222747087633 L599.5608241638868,228.92247302897596 M375.02866074302693,182.0610727279942 L314.5748747034011,147.57730690520626 M435.0627444827468,147.57730690520626 L375.02866074302693,182.0610727279942 M314.5748747034011,147.57730690520626 L374.60974448907217,113.22270799196724 M374.60974448907217,113.22270799196724 L435.0627444827468,147.57730690520626 M304.1107061457088,222.79656807706397 L243.6565362020301,188.1599063762462 M364.41097206495834,188.1599063762462 L304.1107061457088,222.79656807706397 M243.6565362020301,188.1599063762462 L303.9570909993204,153.65327078758787 M303.9570909993204,153.65327078758787 L364.41097206495834,188.1599063762462 M232.87766566769608,263.7130497433572 L172.4237039600764,228.9224730289759 M293.4458880178227,228.92247302897596 L232.87766566769608,263.7130497433572 M172.4237039600764,228.9224730289759 L232.99171136819547,194.26278926671245 M232.99171136819547,194.26278926671245 L293.4458880178227,228.92247302897596 M150.56741145076114,310.9923176928237 L90.11443153734109,276.02346701828105 M211.44599763724892,276.02346701828105 L150.56741145076114,310.9923176928237 M90.11443153734109,276.02346701828105 L150.9922150494731,241.18651571393292 M150.9922150494731,241.18651571393292 L211.44599763724892,276.02346701828105 M78.64978541086754,352.30202745107744 L18.19831380138072,317.1770397508713 M139.80019641259508,317.1770397508713 L78.64978541086754,352.30202745107744 M18.19831380138072,317.1770397508713 L79.34740370352318,282.1848349705903 M79.34740370352318,282.1848349705903 L139.80019641259508,317.1770397508713 M6.410380283547056,393.7965681254756 L-54.03896556341056,358.5143953247369 M67.83444073343787,358.5143953247369 L6.410380283547056,393.7965681254756 M-54.03896556341056,358.5143953247369 L7.383248424674093,323.36589690278424 M7.383248424674093,323.36589690278424 L67.83444073343787,358.5143953247369 M446.4424075103092,222.79656807706397 L385.7205783937103,188.1599063762462 M506.4750142566387,188.1599063762462 L446.4424075103092,222.79656807706397 M385.7205783937103,188.1599063762462 L445.7544788112658,153.65327078758787 M445.7544788112658,153.65327078758787 L506.4750142566387,188.1599063762462 M375.5255543062377,263.7130497433573 L314.80274402801325,228.92247302897596 M435.82492808575955,228.92247302897596 L375.5255543062377,263.7130497433573 M314.80274402801325,228.92247302897596 L375.1029143573279,194.26278926671245 M375.1029143573279,194.26278926671245 L435.82492808575955,228.92247302897596 M304.2929186098848,304.81172658572217 L243.56971928735743,269.8662066446067 M364.8608415318987,269.8662066446067 L304.2929186098848,304.81172658572217 M243.56971928735743,269.8662066446067 L304.1379349562726,235.0524542179636 M304.1379349562726,235.0524542179636 L364.8608415318987,269.8662066446067 M518.1734429447791,263.7130497433573 L457.18178409595,228.92247302897596 M578.2039681536962,228.92247302897596 L518.1734429447791,263.7130497433573 M457.18178409595,228.92247302897596 L517.2141173464604,194.26278926671245 M517.2141173464604,194.26278926671245 L578.2039681536962,228.92247302897596 M447.2584024585757,304.8117265857222 L386.26515722211184,269.8662066446067 M507.5562794666531,269.8662066446067 L447.2584024585757,304.8117265857222 M386.26515722211184,269.8662066446067 L446.5643452271819,235.0524542179636 M446.5643452271819,235.0524542179636 L507.5562794666531,269.8662066446067 M376.0268829341651,346.0938182527769 L315.03264336888014,310.9923176928237 M436.59390174314206,310.9923176928237 L376.0268829341651,346.0938182527769 M315.03264336888014,310.9923176928237 L375.60046941947735,276.02346701828105 M375.60046941947735,276.02346701828105 L436.59390174314206,310.9923176928237 M221.9822565506878,352.30202745107755 L161.25935216751526,317.1770397508713 M282.8612347787297,317.1770397508713 L221.9822565506878,352.30202745107755 M161.25935216751526,317.1770397508713 L222.1380353927371,282.1848349705903 M222.1380353927371,282.1848349705903 L282.8612347787297,317.1770397508713 M150.06350572121926,393.7965681254756 L89.3415124328817,358.5143953247369 M211.2149187297302,358.5143953247369 L150.06350572121926,393.7965681254756 M89.3415124328817,358.5143953247369 L150.49211196521225,323.36589690278424 M150.49211196521225,323.36589690278424 L211.2149187297302,358.5143953247369 M77.82224928264998,435.4771829733014 L17.10178463856539,400.0367675958113 M139.24792989993625,400.0367675958113 L77.82224928264998,435.4771829733014 M17.10178463856539,400.0367675958113 L78.52612633787726,364.7309260537953 M78.52612633787726,364.7309260537953 L139.24792989993625,400.0367675958113 M293.7166311588915,393.7965681254756 L232.721990429174,358.5143953247369 M354.5953967260225,358.5143953247369 L293.7166311588915,393.7965681254756 M293.6009755057505,323.36589690278424 L354.5953967260225,358.5143953247369 M232.721990429174,358.5143953247369 L293.6009755057505,323.36589690278424 M221.7974669298237,435.4771829733014 L160.80313200488405,400.0367675958113 M282.94927726625497,400.0367675958113 L221.7974669298237,435.4771829733014 M160.80313200488405,400.0367675958113 L221.95464335963175,364.7309260537953 M221.95464335963175,364.7309260537953 L282.94927726625497,400.0367675958113 M149.55507050197355,477.34512642718494 L88.56165898633918,441.74540148972324 M210.98176666839277,441.74540148972335 L149.55507050197355,477.34512642718494 M88.56165898633918,441.74540148972324 L149.98753068006266,406.28115793214465 M149.98753068006266,406.28115793214465 L210.98176666839277,441.74540148972335 M314.52671144288945,182.50778293322622 L374.9236366354993,217.02477044114727 M374.9236366354993,217.02477044114727 L375.02866074302693,182.0610727279942 M314.52671144288945,182.50778293322622 L314.5748747034011,147.57730690520626 M374.9236366354993,217.02477044114727 L434.9016466803456,182.50778293322622 M434.9016466803456,182.50778293322622 L435.0627444827468,147.57730690520626 M374.5055053254456,148.1199658149666 L314.52671144288945,182.50778293322622 M374.5055053254456,148.1199658149666 L374.60974448907217,113.22270799196724 M434.9016466803456,182.50778293322622 L374.5055053254456,148.1199658149666 M243.67488591185065,223.12946705089894 L304.0721939278923,257.79935367637063 M304.0721939278923,257.79935367637063 L304.1107061457088,222.79656807706397 M243.67488591185065,223.12946705089894 L243.6565362020301,188.1599063762462 M304.0721939278923,257.79935367637063 L364.315887204979,223.12946705089894 M364.315887204979,223.12946705089894 L364.41097206495834,188.1599063762462 M303.91886725364003,188.5896092319207 L243.67488591185065,223.12946705089894 M303.91886725364003,188.5896092319207 L303.9570909993204,153.65327078758787 M364.315887204979,223.12946705089894 L303.91886725364003,188.5896092319207 M172.5091574045432,263.93112207898946 L232.90625777210187,298.7549260176706 M232.90625777210187,298.7549260176706 L232.87766566769608,263.7130497433572 M172.5091574045432,263.93112207898946 L172.4237039600764,228.9224730289759 M232.90625777210187,298.7549260176706 L293.4174035363338,263.93112207898946 M293.4174035363338,263.93112207898946 L293.4458880178227,228.92247302897596 M233.0200888332775,229.23821298679718 L172.5091574045432,263.93112207898946 M233.0200888332775,229.23821298679718 L232.99171136819547,194.26278926671245 M293.4174035363338,263.93112207898946 L233.0200888332775,229.23821298679718 M90.27779228787813,311.0770708713861 L150.67391363796673,346.07915023088947 M150.67391363796673,346.07915023088947 L150.56741145076114,310.9923176928237 M90.27779228787813,311.0770708713861 L90.11443153734109,276.02346701828105 M150.67391363796673,346.07915023088947 L211.49483744926522,311.0770708713861 M211.49483744926522,311.0770708713861 L211.44599763724892,276.02346701828105 M151.09791569553664,276.2068918386462 L90.27779228787813,311.0770708713861 M151.09791569553664,276.2068918386462 L150.9922150494731,241.18651571393292 M211.49483744926522,311.0770708713861 L151.09791569553664,276.2068918386462 M18.43006854399016,352.26973622084074 L78.82468586590863,387.427952827167 M78.82468586590863,387.427952827167 L78.64978541086754,352.30202745107744 M18.43006854399016,352.26973622084074 L18.19831380138072,317.1770397508713 M78.82468586590863,387.427952827167 L139.91691960412828,352.26973622084074 M139.91691960412828,352.26973622084074 L139.80019641259508,317.1770397508713 M79.52098492824405,317.24430265973695 L18.43006854399016,352.26973622084074 M79.52098492824405,317.24430265973695 L79.34740370352318,282.1848349705903 M139.91691960412828,352.26973622084074 L79.52098492824405,317.24430265973695 M-53.73820719920127,393.6461845845142 L6.654290399725028,428.9615855183041 M6.654290399725028,428.9615855183041 L6.410380283547056,393.7965681254756 M-53.73820719920127,393.6461845845142 L-54.03896556341056,358.5143953247369 M6.654290399725028,428.9615855183041 L68.01965351139722,393.64618458451423 M68.01965351139722,393.64618458451423 L67.83444073343787,358.5143953247369 M7.6253146974733,358.46445730858665 L-53.73820719920127,393.6461845845142 M7.6253146974733,358.46445730858665 L7.383248424674093,323.36589690278424 M68.01965351139722,393.64618458451423 L7.6253146974733,358.46445730858665 M385.6054756684722,223.12946705089894 L446.2699397522614,257.79935367637063 M446.2699397522614,257.79935367637063 L446.4424075103092,222.79656807706397 M385.6054756684722,223.12946705089894 L385.7205783937103,188.1599063762462 M446.2699397522614,257.79935367637063 L506.2464769616005,223.12946705089894 M506.2464769616005,223.12946705089894 L506.4750142566387,188.1599063762462 M445.5833029066972,188.5896092319207 L385.6054756684722,223.12946705089894 M445.5833029066972,188.5896092319207 L445.7544788112658,153.65327078758787 M506.2464769616005,223.12946705089894 L445.5833029066972,188.5896092319207 M314.7541528537086,263.93112207898946 L375.4195953310865,298.7549260176706 M375.4195953310865,298.7549260176706 L375.5255543062377,263.7130497433573 M314.7541528537086,263.93112207898946 L314.80274402801325,228.92247302897596 M375.4195953310865,298.7549260176706 L435.6623989854992,263.93112207898946 M435.6623989854992,263.93112207898946 L435.82492808575955,228.92247302897596 M374.99775081025933,229.23821298679718 L314.7541528537086,263.93112207898946 M374.99775081025933,229.23821298679718 L375.1029143573279,194.26278926671245 M435.6623989854992,263.93112207898946 L374.99775081025933,229.23821298679718 M243.5882323908803,304.9139466914862 L304.2540628126145,339.89269519972595 M304.2540628126145,339.89269519972595 L304.2929186098848,304.81172658572217 M243.5882323908803,304.9139466914862 L243.56971928735743,269.8662066446067 M304.2540628126145,339.89269519972595 L364.76490999546166,304.9139466914862 M364.76490999546166,304.9139466914862 L364.8608415318987,269.8662066446067 M304.09937149274145,270.06696677770435 L243.5882323908803,304.9139466914862 M304.09937149274145,270.06696677770435 L304.1379349562726,235.0524542179636 M364.76490999546166,304.9139466914862 L304.09937149274145,270.06696677770435 M456.999148302874,263.93112207898946 L517.9329328900711,298.7549260176706 M517.9329328900711,298.7549260176706 L518.1734429447791,263.7130497433573 M456.999148302874,263.93112207898946 L457.18178409595,228.92247302897596 M517.9329328900711,298.7549260176706 L577.9073944346645,263.93112207898946 M577.9073944346645,263.93112207898946 L578.2039681536962,228.92247302897596 M516.9754127872413,229.23821298679718 L456.999148302874,263.93112207898946 M516.9754127872413,229.23821298679718 L517.2141173464604,194.26278926671245 M577.9073944346645,263.93112207898946 L516.9754127872413,229.23821298679718 M386.1490295727408,304.9139466914862 L447.0843960621046,339.89269519972595 M447.0843960621046,339.89269519972595 L447.2584024585757,304.8117265857222 M386.1490295727408,304.9139466914862 L386.26515722211184,269.8662066446067 M447.0843960621046,339.89269519972595 L507.3257071773221,304.9139466914862 M507.3257071773221,304.9139466914862 L507.5562794666531,269.8662066446067 M446.39164797745593,270.06696677770435 L386.1490295727408,304.9139466914862 M446.39164797745593,270.06696677770435 L446.5643452271819,235.0524542179636 M507.3257071773221,304.9139466914862 L446.39164797745593,270.06696677770435 M314.9836185525474,346.07915023088947 L375.9199765530792,381.21387972673836 M375.9199765530792,381.21387972673836 L376.0268829341651,346.0938182527769 M314.9836185525474,346.07915023088947 L315.03264336888014,310.9923176928237 M375.9199765530792,381.21387972673836 L436.42992218506356,346.07915023088947 M436.42992218506356,346.07915023088947 L436.59390174314206,310.9923176928237 M375.49436913820057,311.0770708713861 L314.9836185525474,346.07915023088947 M375.49436913820057,311.0770708713861 L375.60046941947735,276.02346701828105 M436.42992218506356,346.07915023088947 L375.49436913820057,311.0770708713861 M161.35577567356444,352.26973622084074 L222.02131199210476,387.427952827167 M222.02131199210476,387.427952827167 L221.9822565506878,352.30202745107755 M161.35577567356444,352.26973622084074 L161.25935216751526,317.1770397508713 M222.02131199210476,387.427952827167 L282.8426267337026,352.26973622084074 M282.8426267337026,352.26973622084074 L282.8612347787297,317.1770397508713 M222.1767962487428,317.24430265973706 L161.35577567356444,352.26973622084074 M222.1767962487428,317.24430265973706 L222.1380353927371,282.1848349705903 M282.8426267337026,352.26973622084074 L222.1767962487428,317.24430265973706 M89.50633481326764,393.64618458451423 L150.1709626255494,428.96158551830416 M150.1709626255494,428.96158551830416 L150.06350572121926,393.7965681254756 M89.50633481326764,393.64618458451423 L89.3415124328817,358.5143953247369 M150.1709626255494,428.96158551830416 L211.2641955238662,393.64618458451423 M211.2641955238662,393.64618458451423 L211.2149187297302,358.5143953247369 M150.59875654693502,358.46445730858665 L89.50633481326764,393.64618458451423 M150.59875654693502,358.46445730858665 L150.49211196521225,323.36589690278424 M211.2641955238662,393.64618458451423 L150.59875654693502,358.46445730858665 M17.335617597885857,435.2076486470917 L77.99872111869479,470.6812903724748 M77.99872111869479,470.6812903724748 L77.82224928264998,435.4771829733014 M17.335617597885857,435.2076486470917 L17.10178463856539,400.0367675958113 M77.99872111869479,470.6812903724748 L139.36569978455753,435.2076486470917 M139.36569978455753,435.2076486470917 L139.24792989993625,400.0367675958113 M78.70126115887103,399.86857917483695 L17.335617597885857,435.2076486470917 M78.70126115887103,399.86857917483695 L78.52612633787726,364.7309260537953 M139.36569978455753,435.2076486470917 L78.70126115887103,399.86857917483695 M232.7508768257365,393.64618458451423 L293.6876348513738,428.96158551830416 M293.6876348513738,428.96158551830416 L293.7166311588915,393.7965681254756 M232.7508768257365,393.64618458451423 L232.721990429174,358.5143953247369 M293.6876348513738,428.96158551830416 L354.5087375363351,393.64618458451423 M354.5087375363351,393.64618458451423 L354.5953967260225,358.5143953247369 M354.5087375363351,393.64618458451423 L293.57219839639674,358.46445730858665 M293.57219839639674,358.46445730858665 L293.6009755057505,323.36589690278424 M293.57219839639674,358.46445730858665 L232.7508768257365,393.64618458451423 M160.90042017044078,435.2076486470917 L221.83687326214437,470.6812903724748 M221.83687326214437,470.6812903724748 L221.7974669298237,435.4771829733014 M160.90042017044078,435.2076486470917 L160.80313200488405,400.0367675958113 M221.83687326214437,470.6812903724748 L282.93050235711246,435.2076486470917 M282.93050235711246,435.2076486470917 L282.94927726625497,400.0367675958113 M221.9937511351934,399.86857917483695 L160.90042017044078,435.2076486470917 M221.9937511351934,399.86857917483695 L221.95464335963175,364.7309260537953 M282.93050235711246,435.2076486470917 L221.9937511351934,399.86857917483695 M88.72796270104931,476.95537214191427 L149.66349501875663,512.5883206118582 M149.66349501875663,512.5883206118582 L149.55507050197355,477.34512642718494 M88.72796270104931,476.95537214191427 L88.56165898633918,441.74540148972324 M149.66349501875663,512.5883206118582 L211.0314863356772,476.95537214191427 M211.0314863356772,476.95537214191427 L210.98176666839277,441.74540148972335 M150.09513189854164,441.45790259262776 L88.72796270104931,476.95537214191427 M150.09513189854164,441.45790259262776 L149.98753068006266,406.28115793214465 M211.0314863356772,476.95537214191427 L150.09513189854164,441.45790259262776" stroke="black"  stroke-width="4"  fill="red"/>
<path d="M145.63720845999723,454.7351355599736 L145.94101452455118,550.2539472219676 M621.3345886652025,179.4129155686177 L620.4226243504256,274.2263199910606 M145.63720845999723,454.7351355599736 L621.3345886652025,179.4129155686177 M145.94101452455118,550.2539472219676 L620.4226243504256,274.2263199910606 M399.90671713249435,602.9818278065572 L399.5505840980111,698.8717412177631 M399.90671713249435,602.9818278065572 L145.63720845999723,454.7351355599736 M399.5505840980111,698.8717412177631 L145.94101452455118,550.2539472219676 M875.5460372628544,323.29813732264677 L873.9745805274605,418.48281964849036 M621.3345886652025,179.4129155686177 L875.5460372628544,323.29813732264677 M620.4226243504256,274.2263199910606 L873.9745805274605,418.48281964849036 M875.5460372628544,323.29813732264677 L399.90671713249435,602.9818278065572 M167.33932542185363,454.7351355599736 L621.5732586801934,191.65826720047653 M621.5732586801934,191.65826720047653 L853.9968632361283,323.2981373226469 M853.9968632361283,323.2981373226469 L399.8136336430447,590.1826860317068 M399.8136336430447,590.1826860317068 L167.33932542185363,454.7351355599736 M873.9745805274605,418.48281964849036 L399.5505840980111,698.8717412177631 M167.33932542185363,454.7351355599736 L167.55480570417035,537.8229805000615 M621.5732586801934,191.65826720047653 L620.7789262888224,274.1597965268666 M167.55480570417035,537.8229805000615 L620.7789262888224,274.1597965268666 M853.9968632361283,323.2981373226469 L852.6780250839262,406.0951407797858 M620.7789262888224,274.1597965268666 L852.6780250839262,406.0951407797858 M399.8136336430447,590.1826860317068 L399.50426870301715,673.5658800877563 M852.6780250839262,406.0951407797858 L399.50426870301715,673.5658800877563 M399.50426870301715,673.5658800877563 L167.55480570417035,537.8229805000615" stroke="black"  stroke-width="4"  fill="red"/></svg>