<svg viewBox="0 0 800 800" xmlns="http://www.w3.org/2000/svg"><path d="M386.13910657449935,144.02701311324898 L386.2735326858617,95.97267968592445 M-83.33118550463456,413.31050969960313 L-83.74514954792511,364.9388844608647 M386.13910657449935,144.02701311324898 L-83.33118550463456,413.31050969960313 M386.2735326858617,95.97267968592445 L-83.74514954792511,364.9388844608647 M620.8592685562485,277.78899362866457 L621.2678373487706,229.57602788325596 M620.8592685562485,277.78899362866457 L386.13910657449935,144.02701311324898 M621.2678373487706,229.57602788325596 L386.2735326858617,95.97267968592445 M151.38877806844914,550.6265091792127 L151.24895577765415,502.0962379574892 M-83.33118550463456,413.31050969960313 L151.38877806844914,550.6265091792127 M-83.74514954792511,364.9388844608647 L151.24895577765415,502.0962379574892 M151.38877806844914,550.6265091792127 L620.8592685562485,277.78899362866457 M151.24895577765415,502.0962379574892 L621.2678373487706,229.57602788325596 M386.7626372486351,181.82239976408152 L319.3355842047162,143.32689497632884 M453.7510557339133,143.32689497632884 L386.7626372486351,181.82239976408152 M319.3355842047162,143.32689497632884 L386.32482446512086,104.97563166562975 M386.32482446512086,104.97563166562975 L453.7510557339133,143.32689497632884 M311.59444787219877,225.0184843926986 L244.1670347056383,186.3608034565001 M378.8650791446666,186.3608034565001 L311.59444787219877,225.0184843926986 M244.1670347056383,186.3608034565001 L311.4379603229101,147.8482756016744 M311.4379603229101,147.8482756016744 L378.8650791446666,186.3608034565001 M236.10895220868133,268.3969119690925 L168.68177549584243,229.57602788325596 M303.6635834168912,229.57602788325596 L236.10895220868133,268.3969119690925 M168.68177549584243,229.57602788325596 L236.23616691582504,190.9012161810977 M236.23616691582504,190.9012161810977 L303.6635834168912,229.57602788325596 M152.3060244841143,316.5550276313951 L84.87981232565949,277.5525558002749 M220.17664780464793,277.5525558002749 L152.3060244841143,316.5550276313951 M84.87981232565949,277.5525558002749 L152.74959759963122,238.69718147800194 M152.74959759963122,238.69718147800194 L220.17664780464793,277.5525558002749 M76.14591379371507,360.3211288771253 L8.72121893682231,321.15326327320537 M144.30434908939372,321.15326327320537 L76.14591379371507,360.3211288771253 M8.72121893682231,321.15326327320537 L76.87826766208536,282.13343095413796 M76.87826766208536,282.13343095413796 L144.30434908939372,321.15326327320537 M-0.33781136679874635,404.2731981254651 L-67.76036848647635,364.9388844608647 M68.11027053583825,364.9388844608647 L-0.33781136679874635,404.2731981254651 M-67.76036848647635,364.9388844608647 L0.6857713507367862,325.7535478113693 M0.6857713507367862,325.7535478113693 L68.11027053583825,364.9388844608647 M462.42302163902286,225.0184843926986 L394.7119079021994,186.3608034565001 M529.4099523412277,186.3608034565001 L462.42302163902286,225.0184843926986 M394.7119079021994,186.3608034565001 L461.7001981970701,147.8482756016744 M461.7001981970701,147.8482756016744 L529.4099523412277,186.3608034565001 M387.2558711100943,268.3969119690926 L319.54379611348514,229.57602788325596 M454.5256040345339,229.57602788325596 L387.2558711100943,268.3969119690926 M319.54379611348514,229.57602788325596 L386.81436124412517,190.9012161810977 M386.81436124412517,190.9012161810977 L454.5256040345339,229.57602788325596 M311.77074755209986,311.9588395174227 L244.05830785277408,272.97371659092477 M379.3250773683228,272.97371659092477 L311.77074755209986,311.9588395174227 M244.05830785277408,272.97371659092477 L311.6129357579415,234.13559312982557 M311.6129357579415,234.13559312982557 L379.3250773683228,272.97371659092477 M538.4027900115072,268.3969119690926 L470.40581673112786,229.57602788325596 M605.3876246521767,229.57602788325596 L538.4027900115072,268.3969119690926 M470.40581673112786,229.57602788325596 L537.3925555724251,190.9012161810978 M537.3925555724251,190.9012161810978 L605.3876246521767,229.57602788325596 M463.23735825570895,311.9588395174228 L395.23881495838737,272.97371659092477 M530.5055844739361,272.97371659092477 L463.23735825570895,311.9588395174228 M395.23881495838737,272.97371659092477 L462.50841806364406,234.13559312982557 M462.50841806364406,234.13559312982557 L530.5055844739361,272.97371659092477 M387.7532867847475,355.70543387151343 L319.75376997583015,316.5550276313952 M455.30670680245726,316.5550276313952 L387.7532867847475,355.70543387151343 M319.75376997583015,316.5550276313952 L387.30803280810426,277.5525558002749 M387.30803280810426,277.5525558002749 L455.30670680245726,316.5550276313952 M227.96744514280226,360.3211288771253 L160.2553055779315,321.15326327320537 M295.83843573050297,321.15326327320537 L227.96744514280226,360.3211288771253 M160.2553055779315,321.15326327320537 L228.12599598028453,282.13343095413796 M228.12599598028453,282.13343095413796 L295.83843573050297,321.15326327320537 M151.806274952168,404.2731981254651 L84.09505159728701,364.9388844608647 M219.96569061960162,364.9388844608647 L151.806274952168,404.2731981254651 M84.09505159728701,364.9388844608647 L152.25361851020205,325.75354781136934 M152.25361851020205,325.75354781136934 L219.96569061960162,364.9388844608647 M75.32079677551349,448.412423204311 L7.61111014865628,408.91059821145126 M143.7704799775276,408.91059821145126 L75.32079677551349,448.412423204311 M7.61111014865628,408.91059821145126 L76.05938902584592,369.55870200289127 M76.05938902584592,369.55870200289127 L143.7704799775276,408.91059821145126 M303.95036127113474,404.2731981254651 L235.95047168105037,364.9388844608647 M371.82111070336487,364.9388844608648 L303.95036127113474,404.2731981254651 M303.8214656696673,325.75354781136934 L371.82111070336487,364.9388844608648 M235.95047168105037,364.9388844608647 L303.8214656696673,325.75354781136934 M227.78881156154216,448.4124232043111 L159.7892293691595,408.91059821145126 M295.9485991980308,408.91059821145126 L227.78881156154216,448.4124232043111 M159.7892293691595,408.91059821145126 L227.94871297656255,369.55870200289127 M227.94871297656255,369.55870200289127 L295.9485991980308,408.91059821145126 M151.302260292268,492.74000207911394 L83.3036060655794,453.0695934149095 M219.75293644441138,453.06959341490955 L151.302260292268,492.74000207911394 M83.3036060655794,453.0695934149095 L151.75342257204295,413.55007342892236 M151.75342257204295,413.55007342892236 L219.75293644441138,453.06959341490955 M319.2892493805444,182.2823174523971 L386.6528755975987,220.81484830981844 M386.6528755975987,220.81484830981844 L386.7626372486351,181.82239976408152 M319.2892493805444,182.2823174523971 L319.3355842047162,143.32689497632884 M386.6528755975987,220.81484830981844 L453.5786901879944,182.2823174523971 M453.5786901879944,182.2823174523971 L453.7510557339133,143.32689497632884 M386.2158834366878,143.89403168709276 L319.2892493805444,182.2823174523971 M386.2158834366878,143.89403168709276 L386.32482446512086,104.97563166562975 M453.5786901879944,182.2823174523971 L386.2158834366878,143.89403168709276 M244.19123017595422,225.35760821355706 L311.55521550166856,264.052318375395 M311.55521550166856,264.052318375395 L311.59444787219877,225.0184843926986 M244.19123017595422,225.35760821355706 L244.1670347056383,186.3608034565001 M311.55521550166856,264.052318375395 L378.76271369332983,225.35760821355706 M378.76271369332983,225.35760821355706 L378.8650791446666,186.3608034565001 M311.3990218835066,186.80805391264494 L244.19123017595422,225.35760821355706 M311.3990218835066,186.80805391264494 L311.4379603229101,147.8482756016744 M378.76271369332983,225.35760821355706 L311.3990218835066,186.80805391264494 M168.77709635161608,268.61421839304137 L236.14084589087855,307.4721339115328 M236.14084589087855,307.4721339115328 L236.10895220868133,268.3969119690925 M168.77709635161608,268.61421839304137 L168.68177549584243,229.57602788325596 M236.14084589087855,307.4721339115328 L303.63180979829997,268.61421839304137 M303.63180979829997,268.61421839304137 L303.6635834168912,229.57602788325596 M236.26782114750472,229.90237718795896 L168.77709635161608,268.61421839304137 M236.26782114750472,229.90237718795896 L236.23616691582504,190.9012161810977 M303.63180979829997,268.61421839304137 L236.26782114750472,229.90237718795896 M85.05444461483319,316.63649121800586 L152.41723232760904,355.6759957975032 M152.41723232760904,355.6759957975032 L152.3060244841143,316.5550276313951 M85.05444461483319,316.63649121800586 L84.87981232565949,277.5525558002749 M152.41723232760904,355.6759957975032 L220.22359196840432,316.63649121800586 M220.22359196840432,316.63649121800586 L220.17664780464793,277.5525558002749 M152.8599685795852,277.74408512088246 L85.05444461483319,316.63649121800586 M152.8599685795852,277.74408512088246 L152.74959759963122,238.69718147800194 M220.22359196840432,316.63649121800586 L152.8599685795852,277.74408512088246 M8.968248005667817,360.2785882608297 L76.3295227174055,399.4834867689529 M76.3295227174055,399.4834867689529 L76.14591379371507,360.3211288771253 M8.968248005667817,360.2785882608297 L8.72121893682231,321.15326327320537 M76.3295227174055,399.4834867689529 L144.4231493286095,360.2785882608297 M144.4231493286095,360.2785882608297 L144.30434908939372,321.15326327320537 M77.0604919768262,321.2217231303815 L8.968248005667817,360.2785882608297 M77.0604919768262,321.2217231303815 L76.87826766208536,282.13343095413796 M144.4231493286095,360.2785882608297 L77.0604919768262,321.2217231303815 M-67.4403297676999,404.10559913401835 L-0.08118672133940663,443.47694485841816 M-0.08118672133940663,443.47694485841816 L-0.33781136679874635,404.2731981254651 M-67.4403297676999,404.10559913401835 L-67.76036848647635,364.9388844608647 M-0.08118672133940663,443.47694485841816 L68.30153627901234,404.10559913401846 M68.30153627901234,404.10559913401846 L68.11027053583825,364.9388844608647 M0.9404566838546202,364.88322962180825 L-67.4403297676999,404.10559913401835 M0.9404566838546202,364.88322962180825 L0.6857713507367862,325.7535478113693 M68.30153627901234,404.10559913401846 L0.9404566838546202,364.88322962180825 M394.5946529306681,225.35760821355706 L462.24180545133584,264.0523183753951 M462.24180545133584,264.0523183753951 L462.42302163902286,225.0184843926986 M394.5946529306681,225.35760821355706 L394.7119079021994,186.3608034565001 M462.24180545133584,264.0523183753951 L529.1661364480437,225.35760821355706 M529.1661364480437,225.35760821355706 L529.4099523412277,186.3608034565001 M461.5203396912541,186.80805391264494 L394.5946529306681,225.35760821355706 M461.5203396912541,186.80805391264494 L461.7001981970701,147.8482756016744 M529.1661364480437,225.35760821355706 L461.5203396912541,186.80805391264494 M319.49707020379213,268.61421839304137 L387.1451812718807,307.4721339115328 M387.1451812718807,307.4721339115328 L387.2558711100943,268.3969119690926 M319.49707020379213,268.61421839304137 L319.54379611348514,229.57602788325596 M387.1451812718807,307.4721339115328 L454.351783650476,268.61421839304137 M454.351783650476,268.61421839304137 L454.5256040345339,229.57602788325596 M386.7045024400603,229.90237718795896 L319.49707020379213,268.61421839304137 M386.7045024400603,229.90237718795896 L386.81436124412517,190.9012161810977 M454.351783650476,268.61421839304137 L386.7045024400603,229.90237718795896 M244.08270797493236,312.0532952636308 L311.73118271453313,351.0754508646059 M311.73118271453313,351.0754508646059 L311.77074755209986,311.9588395174227 M244.08270797493236,312.0532952636308 L244.05830785277408,272.97371659092477 M311.73118271453313,351.0754508646059 L379.2218460822686,312.05329526363084 M379.2218460822686,312.05329526363084 L379.3250773683228,272.97371659092477 M311.5736685886178,273.17814019342217 L244.08270797493236,312.0532952636308 M311.5736685886178,273.17814019342217 L311.6129357579415,234.13559312982557 M379.2218460822686,312.05329526363084 L311.5736685886178,273.17814019342217 M470.21704405596824,268.61421839304137 L538.1495166528828,307.4721339115329 M538.1495166528828,307.4721339115329 L538.4027900115072,268.3969119690926 M470.21704405596824,268.61421839304137 L470.40581673112786,229.57602788325596 M538.1495166528828,307.4721339115329 L605.0717575026522,268.61421839304137 M605.0717575026522,268.61421839304137 L605.3876246521767,229.57602788325596 M537.141183732616,229.90237718795896 L470.21704405596824,268.61421839304137 M537.141183732616,229.90237718795896 L537.3925555724251,190.9012161810978 M605.0717575026522,268.61421839304137 L537.141183732616,229.90237718795896 M395.1205682125434,312.05329526363084 L463.0546063869482,351.075450864606 M463.0546063869482,351.075450864606 L463.23735825570895,311.9588395174228 M395.1205682125434,312.05329526363084 L395.23881495838737,272.97371659092477 M463.0546063869482,351.075450864606 L530.2597063198797,312.05329526363084 M530.2597063198797,312.05329526363084 L530.5055844739361,272.97371659092477 M462.3270411386726,273.17814019342217 L395.1205682125434,312.05329526363084 M462.3270411386726,273.17814019342217 L462.50841806364406,234.13559312982557 M530.2597063198797,312.05329526363084 L462.3270411386726,273.17814019342217 M319.7066480082476,355.6759957975032 L387.6416569357134,394.86343497223095 M387.6416569357134,394.86343497223095 L387.7532867847475,355.70543387151343 M319.7066480082476,355.6759957975032 L319.75376997583015,316.5550276313952 M387.6416569357134,394.86343497223095 L455.13141308305023,355.67599579750333 M455.13141308305023,355.67599579750333 L455.30670680245726,316.5550276313952 M387.1972445816392,316.63649121800586 L319.7066480082476,355.6759957975032 M387.1972445816392,316.63649121800586 L387.30803280810426,277.5525558002749 M455.13141308305023,355.67599579750333 L387.1972445816392,316.63649121800586 M160.35902007248495,360.2785882608297 L228.00719552834346,399.4834867689529 M228.00719552834346,399.4834867689529 L227.96744514280226,360.3211288771253 M160.35902007248495,360.2785882608297 L160.2553055779315,321.15326327320537 M228.00719552834346,399.4834867689529 L295.8139213954267,360.2785882608297 M295.8139213954267,360.2785882608297 L295.83843573050297,321.15326327320537 M228.16544660512534,321.2217231303815 L160.35902007248495,360.2785882608297 M228.16544660512534,321.2217231303815 L228.12599598028453,282.13343095413796 M295.8139213954267,360.2785882608297 L228.16544660512534,321.2217231303815 M84.27116757862558,404.10559913401846 L151.9184294268502,443.47694485841816 M151.9184294268502,443.47694485841816 L151.806274952168,404.2731981254651 M84.27116757862558,404.10559913401846 L84.09505159728701,364.9388844608647 M151.9184294268502,443.47694485841816 L220.01303362533775,404.10559913401846 M220.01303362533775,404.10559913401846 L219.96569061960162,364.9388844608647 M152.36492543356462,364.88322962180825 L84.27116757862558,404.10559913401846 M152.36492543356462,364.88322962180825 L152.25361851020205,325.75354781136934 M220.01303362533775,404.10559913401846 L152.36492543356462,364.88322962180825 M7.860242466768796,448.11870156686757 L75.50597196102922,487.6575567578357 M75.50597196102922,487.6575567578357 L75.32079677551349,448.412423204311 M7.860242466768796,448.11870156686757 L7.61111014865628,408.91059821145126 M75.50597196102922,487.6575567578357 L143.89029170303218,448.11870156686757 M143.89029170303218,448.11870156686757 L143.7704799775276,408.91059821145126 M76.24316188153006,408.7297734462717 L7.860242466768796,448.11870156686757 M76.24316188153006,408.7297734462717 L76.05938902584592,369.55870200289127 M143.89029170303218,448.11870156686757 L76.24316188153006,408.7297734462717 M235.98266492495094,404.10559913401846 L303.9180455750398,443.47694485841816 M303.9180455750398,443.47694485841816 L303.95036127113474,404.2731981254651 M235.98266492495094,404.10559913401846 L235.95047168105037,364.9388844608647 M303.9180455750398,443.47694485841816 L371.72453097166317,404.10559913401846 M371.72453097166317,404.10559913401846 L371.82111070336487,364.9388844608648 M371.72453097166317,404.10559913401846 L303.7893941832746,364.88322962180825 M303.7893941832746,364.88322962180825 L303.8214656696673,325.75354781136934 M303.7893941832746,364.88322962180825 L235.98266492495094,404.10559913401846 M159.89382690729838,448.11870156686757 L227.82890103469504,487.6575567578357 M227.82890103469504,487.6575567578357 L227.78881156154216,448.4124232043111 M159.89382690729838,448.11870156686757 L159.7892293691595,408.91059821145126 M227.82890103469504,487.6575567578357 L295.92387614356164,448.11870156686757 M295.92387614356164,448.11870156686757 L295.9485991980308,408.91059821145126 M227.98849885253537,408.7297734462717 L159.89382690729838,448.11870156686757 M227.98849885253537,408.7297734462717 L227.94871297656255,369.55870200289127 M295.92387614356164,448.11870156686757 L227.98849885253537,408.7297734462717 M83.48122472810155,492.3190833113396 L151.41537353675415,532.0265192773438 M151.41537353675415,532.0265192773438 L151.302260292268,492.74000207911394 M83.48122472810155,492.3190833113396 L83.3036060655794,453.0695934149095 M151.41537353675415,532.0265192773438 L219.80068339670225,492.3190833113396 M219.80068339670225,492.3190833113396 L219.75293644441138,453.06959341490955 M151.86567739465806,452.76253338309385 L83.48122472810155,492.3190833113396 M151.86567739465806,452.76253338309385 L151.75342257204295,413.55007342892236 M219.80068339670225,492.3190833113396 L151.86567739465806,452.76253338309385" stroke="black"  stroke-width="4"  fill="red"/>
<path d="M175.32129331693665,516.1463695758589 L175.43282740264289,564.6927718677455 M645.3379089898827,243.2607942745745 L644.901059910888,291.4898943079383 M175.32129331693665,516.1463695758589 L645.3379089898827,243.2607942745745 M175.43282740264289,564.6927718677455 L644.901059910888,291.4898943079383 M413.7739247827592,655.3223366531834 L413.6031808919397,704.0273203140755 M413.7739247827592,655.3223366531834 L175.32129331693665,516.1463695758589 M413.6031808919397,704.0273203140755 L175.43282740264289,564.6927718677455 M883.745149547925,378.80452848860875 L883.0261820996383,427.19228853566227 M645.3379089898827,243.2607942745745 L883.745149547925,378.80452848860875 M644.901059910888,291.4898943079383 L883.0261820996383,427.19228853566227 M883.745149547925,378.80452848860875 L413.7739247827592,655.3223366531834 M191.42288278411831,516.1463695758589 L645.504595537803,252.39409860604303 M645.504595537803,252.39409860604303 L867.7496572192921,378.80452848860875 M867.7496572192921,378.80452848860875 L413.70883166359806,645.8279718464285 M413.70883166359806,645.8279718464285 L191.42288278411831,516.1463695758589 M883.0261820996383,427.19228853566227 L413.6031808919397,704.0273203140755 M191.42288278411831,516.1463695758589 L191.49782068646527,555.454665967469 M645.504595537803,252.39409860604303 L645.1505633842281,291.4540721270793 M191.49782068646527,555.454665967469 L645.1505633842281,291.4540721270793 M867.7496572192921,378.80452848860875 L867.1826761348678,417.9843134338743 M645.1505633842281,291.4540721270793 L867.1826761348678,417.9843134338743 M413.70883166359806,645.8279718464285 L413.57070418979697,685.2560244319966 M867.1826761348678,417.9843134338743 L413.57070418979697,685.2560244319966 M413.57070418979697,685.2560244319966 L191.49782068646527,555.454665967469" stroke="black"  stroke-width="4"  fill="red"/></svg>